HIERARCHY
ROOT Hips
{
	OFFSET 0.000000 0.000000 0.000000
	CHANNELS 6 Xposition Yposition Zposition Zrotation Yrotation Xrotation 
	JOINT LowerBack
	{
		OFFSET 0.000000 0.000000 0.000000
		CHANNELS 3 Zrotation Yrotation Xrotation
		JOINT Spine
		{
			OFFSET 0.028270 2.035590 -0.193380
			CHANNELS 3 Zrotation Yrotation Xrotation
			JOINT Spine1
			{
				OFFSET 0.056720 2.048850 -0.042750
				CHANNELS 3 Zrotation Yrotation Xrotation
				JOINT Neck
				{
					OFFSET 0.000000 0.000000 0.000000
					CHANNELS 3 Zrotation Yrotation Xrotation
					JOINT Neck1
					{
						OFFSET -0.054170 1.746240 0.172020
						CHANNELS 3 Zrotation Yrotation Xrotation
						JOINT Head
						{
							OFFSET 0.104070 1.761360 -0.123970
							CHANNELS 3 Zrotation Yrotation Xrotation
							End Site
							{
								OFFSET 0.000000 0.000000 0.000000
							}
						}
					}
				}
				JOINT LeftShoulder
				{
					OFFSET 0.000000 0.000000 0.000000
					CHANNELS 3 Zrotation Yrotation Xrotation
					JOINT LeftArm
					{
						OFFSET 3.362410 1.200890 -0.311210
						CHANNELS 3 Zrotation Yrotation Xrotation
						JOINT LeftForeArm
						{
							OFFSET 4.983000 -0.000000 -0.000000
							CHANNELS 3 Zrotation Yrotation Xrotation
							JOINT LeftHand
							{
								OFFSET 3.483560 -0.000000 -0.000000
								CHANNELS 3 Zrotation Yrotation Xrotation
								JOINT LeftFingerBase
								{
									OFFSET 0.000000 0.000000 0.000000
									CHANNELS 3 Zrotation Yrotation Xrotation
									JOINT LeftHandIndex1
									{
										OFFSET 0.715260 -0.000000 -0.000000
										CHANNELS 3 Zrotation Yrotation Xrotation
										End Site
										{
											OFFSET 0.000000 0.000000 0.000000
										}
									}
								}
								JOINT LThumb
								{
									OFFSET 0.000000 0.000000 0.000000
									CHANNELS 3 Zrotation Yrotation Xrotation
									End Site
									{
										OFFSET 0.000000 0.000000 0.000000
									}
								}
							}
						}
					}
				}
				JOINT RightShoulder
				{
					OFFSET 0.000000 0.000000 0.000000
					CHANNELS 3 Zrotation Yrotation Xrotation
					JOINT RightArm
					{
						OFFSET -3.136600 1.374050 -0.404650
						CHANNELS 3 Zrotation Yrotation Xrotation
						JOINT RightForeArm
						{
							OFFSET -5.241900 -0.000000 -0.000000
							CHANNELS 3 Zrotation Yrotation Xrotation
							JOINT RightHand
							{
								OFFSET -3.444170 -0.000000 -0.000000
								CHANNELS 3 Zrotation Yrotation Xrotation
								JOINT RightFingerBase
								{
									OFFSET 0.000000 0.000000 0.000000
									CHANNELS 3 Zrotation Yrotation Xrotation
									JOINT RightHandIndex1
									{
										OFFSET -0.622530 -0.000000 -0.000000
										CHANNELS 3 Zrotation Yrotation Xrotation
										End Site
										{
											OFFSET 0.000000 0.000000 0.000000
										}
									}
								}
								JOINT RThumb
								{
									OFFSET 0.000000 0.000000 0.000000
									CHANNELS 3 Zrotation Yrotation Xrotation
									End Site
									{
										OFFSET 0.000000 0.000000 0.000000
									}
								}
							}
						}
					}
				}
			}
		}
	}
}
}
MOTION
Frames: 12
Frame Time: 0.008333
-11.461889 16.927684 -2.096625 11.859649 83.781858 12.774701 -5.121949 0.613921 -3.114063 -1.768458 0.833210 -2.991002 -5.946841 0.789966 2.388969 11.082745 -13.522102 -9.107390 -1.933132 -0.136618 -0.360504 0.000000 0.000000 0.000000 -3.766576 27.130231 -0.040986 -74.997758 29.949429 21.575516 -2.774023 -36.730713 -0.015951 -7.199024 2.982981 -0.196227 0.009525 -0.124654 -0.000000 0.000000 0.000000 0.000000 0.000000 0.000000 0.000000 13.748817 -8.030065 -0.446462 52.723394 8.793371 13.813671 2.270231 45.590066 0.012730 4.052650 4.816201 0.172983 0.046410 -0.106161 0.000000 0.000000 0.000000 0.000000 0.000000 0.000000 0.000000 
-11.275011 16.934538 -2.104700 13.252355 83.829652 13.906561 -5.358623 0.524768 -3.041687 -1.817203 0.763050 -2.984864 -5.965605 0.721120 2.359424 11.148536 -13.655917 -9.072248 -1.953793 -0.138760 -0.352024 0.000000 0.000000 0.000000 -3.752346 26.952797 -0.074792 -74.589422 29.486786 21.428540 -2.791026 -36.644886 -0.015593 -7.070561 2.798913 -0.181106 0.006624 -0.122910 -0.000000 0.000000 0.000000 0.000000 0.000000 0.000000 0.000000 13.909811 -8.179109 -0.483553 53.071135 8.213232 13.881817 2.270270 45.698748 0.012664 4.090721 4.791173 0.173684 0.046175 -0.104790 0.000000 0.000000 0.000000 0.000000 0.000000 0.000000 0.000000 
-11.091109 16.940941 -2.112940 14.858857 83.908796 15.255068 -5.596100 0.420366 -2.938399 -1.863426 0.678592 -2.971698 -5.977917 0.638335 2.333755 11.207481 -13.791070 -9.057602 -1.973520 -0.140495 -0.349282 0.000000 0.000000 0.000000 -3.726526 26.762659 -0.093328 -74.216308 28.927735 21.143248 -2.814906 -36.483028 -0.015127 -6.895363 2.624435 -0.165878 0.002859 -0.120975 -0.000000 0.000000 0.000000 0.000000 0.000000 0.000000 0.000000 14.059726 -8.328199 -0.516961 53.447601 7.631143 13.914257 2.271840 45.784249 0.012612 4.116947 4.772826 0.174085 0.046097 -0.103636 0.000000 0.000000 0.000000 0.000000 0.000000 0.000000 0.000000 
-10.910407 16.946596 -2.121336 16.612545 84.013108 16.755666 -5.825073 0.302958 -2.804075 -1.905440 0.581317 -2.951181 -5.983910 0.543160 2.312714 11.259497 -13.926790 -9.062815 -1.991869 -0.141792 -0.352084 0.000000 0.000000 0.000000 -3.687232 26.561310 -0.096954 -73.881573 28.272958 20.722147 -2.845498 -36.250020 -0.014559 -6.675580 2.467743 -0.151144 -0.001723 -0.118853 -0.000000 0.000000 0.000000 0.000000 0.000000 0.000000 0.000000 14.196513 -8.477358 -0.546241 53.850594 7.055097 13.919153 2.275208 45.841835 0.012571 4.134503 4.761513 0.174387 0.046149 -0.102648 0.000000 0.000000 0.000000 0.000000 0.000000 0.000000 0.000000 
-10.732932 16.951484 -2.129792 18.412695 84.119492 18.316853 -6.037721 0.182209 -2.650699 -1.943125 0.479793 -2.927495 -5.986940 0.443904 2.289959 11.304660 -14.042485 -9.079158 -2.010834 -0.142964 -0.357954 0.000000 0.000000 0.000000 -3.636531 26.327199 -0.087833 -73.581903 27.552783 20.152671 -2.881942 -35.969366 -0.013898 -6.410609 2.336791 -0.137604 -0.007019 -0.116593 -0.000000 0.000000 0.000000 0.000000 0.000000 0.000000 0.000000 14.319300 -8.601717 -0.570068 54.285142 6.446916 13.860126 2.281342 45.889596 0.012547 4.165775 4.743611 0.175088 0.046118 -0.101750 0.000000 0.000000 0.000000 0.000000 0.000000 0.000000 0.000000 
-10.558543 16.955504 -2.138444 20.154849 84.230026 19.826599 -6.222718 0.055657 -2.472152 -1.973414 0.371032 -2.896491 -5.984453 0.337962 2.275907 11.343485 -14.167025 -9.112727 -2.027456 -0.143644 -0.368623 0.000000 0.000000 0.000000 -3.573152 26.099783 -0.068353 -73.311788 26.733146 19.482091 -2.923579 -35.625521 -0.013155 -6.109074 2.230669 -0.125160 -0.012953 -0.114104 -0.000000 0.000000 0.000000 0.000000 0.000000 0.000000 0.000000 14.429398 -8.737201 -0.590453 54.739008 5.876660 13.809112 2.289855 45.885015 0.012532 4.185133 4.738669 0.175690 0.046275 -0.100892 0.000000 0.000000 0.000000 0.000000 0.000000 0.000000 0.000000 
-10.387001 16.959077 -2.147202 21.704751 84.313557 21.161736 -6.374963 -0.063634 -2.287939 -1.997377 0.267034 -2.865447 -5.981882 0.236814 2.258652 11.374593 -14.260679 -9.147164 -2.045921 -0.144447 -0.379506 0.000000 0.000000 0.000000 -3.505196 25.842436 -0.041723 -73.060539 25.867057 18.687865 -2.969112 -35.254888 -0.012354 -5.772216 2.153703 -0.114013 -0.019369 -0.111460 -0.000000 0.000000 0.000000 0.000000 0.000000 0.000000 0.000000 14.525970 -8.836880 -0.606389 55.223206 5.268752 13.694042 2.302087 45.858719 0.012529 4.226046 4.726074 0.176891 0.046287 -0.099985 0.000000 0.000000 0.000000 0.000000 0.000000 0.000000 0.000000 
-10.217883 16.962379 -2.156141 22.995150 84.375593 22.249669 -6.490103 -0.179772 -2.095833 -2.013200 0.163638 -2.829981 -5.976017 0.136703 2.252696 11.400646 -14.369677 -9.192255 -2.062468 -0.144894 -0.393313 0.000000 0.000000 0.000000 -3.433022 25.607419 -0.012231 -72.813342 24.906231 17.845290 -3.017276 -34.833344 -0.011500 -5.406861 2.094129 -0.103663 -0.026189 -0.108524 -0.000000 0.000000 0.000000 0.000000 0.000000 0.000000 0.000000 14.615684 -8.956293 -0.620626 55.721352 4.717056 13.605807 2.317763 45.756249 0.012526 4.252814 4.727181 0.178091 0.046554 -0.098977 0.000000 0.000000 0.000000 0.000000 0.000000 0.000000 0.000000 
-10.050935 16.966073 -2.165254 23.903455 84.389238 22.977375 -6.565514 -0.281493 -1.916223 -2.022345 0.071291 -2.798370 -5.972711 0.047439 2.242739 11.417746 -14.441118 -9.227683 -2.082450 -0.145759 -0.404377 0.000000 0.000000 0.000000 -3.368213 25.348287 0.017934 -72.558061 23.917313 16.920977 -3.066981 -34.402860 -0.010626 -5.017433 2.054240 -0.094111 -0.033240 -0.105406 -0.000000 0.000000 0.000000 0.000000 0.000000 0.000000 0.000000 14.695165 -9.034620 -0.632705 56.250139 4.124389 13.448848 2.338198 45.613106 0.012529 4.301064 4.721053 0.179792 0.046704 -0.097803 0.000000 0.000000 0.000000 0.000000 0.000000 0.000000 0.000000 
-9.885712 16.970483 -2.174532 24.405610 84.361909 23.320073 -6.600042 -0.372866 -1.751173 -2.023849 -0.014010 -2.767791 -5.969582 -0.034709 2.240714 11.428179 -14.513996 -9.261858 -2.102943 -0.146669 -0.414979 0.000000 0.000000 0.000000 -3.312785 25.107251 0.045042 -72.279002 22.861064 15.984124 -3.117114 -33.943092 -0.009737 -4.609564 2.019936 -0.084759 -0.040449 -0.102004 -0.000000 0.000000 0.000000 0.000000 0.000000 0.000000 0.000000 14.770873 -9.118514 -0.645051 56.796893 3.564319 13.289080 2.363388 45.385649 0.012526 4.341734 4.721734 0.181492 0.047074 -0.096420 0.000000 0.000000 0.000000 0.000000 0.000000 0.000000 0.000000 
-9.721989 16.976063 -2.183945 24.474291 84.289816 23.255034 -6.592481 -0.452348 -1.609959 -2.017857 -0.090957 -2.740196 -5.967885 -0.108550 2.246267 11.431506 -14.586451 -9.291634 -2.124687 -0.147746 -0.424194 0.000000 0.000000 0.000000 -3.272194 24.885523 0.066948 -71.963610 21.744796 15.056012 -3.166940 -33.459586 -0.008842 -4.188555 1.984104 -0.075306 -0.047720 -0.098333 -0.000000 0.000000 0.000000 0.000000 0.000000 0.000000 0.000000 14.844727 -9.206530 -0.658680 57.363305 3.031281 13.113080 2.393885 45.069394 0.012512 4.374839 4.726451 0.182993 0.047679 -0.094799 0.000000 0.000000 0.000000 0.000000 0.000000 0.000000 0.000000 
-9.559674 16.983140 -2.193351 24.141515 84.166465 22.814135 -6.545532 -0.517353 -1.498584 -2.005638 -0.156925 -2.719676 -5.970316 -0.171790 2.248224 11.422651 -14.622331 -9.303543 -2.150856 -0.149467 -0.428329 0.000000 0.000000 0.000000 -3.250095 24.645137 0.084261 -71.608251 20.619263 14.110164 -3.216155 -32.980380 -0.007969 -3.760183 1.946839 -0.065954 -0.054928 -0.094498 -0.000000 0.000000 0.000000 0.000000 0.000000 0.000000 0.000000 14.909968 -9.259182 -0.673300 57.965622 2.462564 12.851358 2.430219 44.683280 0.012492 4.416496 4.724597 0.184593 0.048334 -0.092950 0.000000 0.000000 0.000000 0.000000 0.000000 0.000000 0.000000 
